<svg width="24" height="24" viewBox="0 0 24 24" fill="none" xmlns="http://www.w3.org/2000/svg">
<path d="M9 12C9 12.5523 8.55229 13 8 13C7.44772 13 7 12.5523 7 12C7 11.4477 7.44772 11 8 11C8.55229 11 9 11.4477 9 12Z" fill="white"/>
<path d="M17 12C17 12.5523 16.5523 13 16 13C15.4477 13 15 12.5523 15 12C15 11.4477 15.4477 11 16 11C16.5523 11 17 11.4477 17 12Z" fill="white"/>
<path fill-rule="evenodd" clip-rule="evenodd" d="M12 1C9.23858 1 7 3.23858 7 6V7H5C3.89543 7 3 7.89543 3 9V20C3 21.1046 3.89543 22 5 22H19C20.1046 22 21 21.1046 21 20V9C21 7.89543 20.1046 7 19 7H17V6C17 3.23858 14.7614 1 12 1ZM12 2.5C10.067 2.5 8.5 4.067 8.5 6V7H15.5V6C15.5 4.067 13.933 2.5 12 2.5ZM5 8.5C4.72386 8.5 4.5 8.72386 4.5 9V20C4.5 20.2761 4.72386 20.5 5 20.5H19C19.2761 20.5 19.5 20.2761 19.5 20V9C19.5 8.72386 19.2761 8.5 19 8.5H5Z" fill="white"/>
</svg>
